<svg width="28" height="28" viewBox="0 0 28 28" fill="none" xmlns="http://www.w3.org/2000/svg">
<path fill-rule="evenodd" clip-rule="evenodd" d="M7.40635 2.46878C4.67941 2.46878 2.46878 4.67941 2.46878 7.40635V19.7503C2.46878 22.4772 4.67941 24.6878 7.40635 24.6878H19.7503C22.4772 24.6878 24.6878 22.4772 24.6878 19.7503V7.40635C24.6878 4.67941 22.4772 2.46878 19.7503 2.46878H7.40635ZM0 7.40635C0 3.31594 3.31594 0 7.40635 0H19.7503C23.8407 0 27.1566 3.31594 27.1566 7.40635V19.7503C27.1566 23.8407 23.8407 27.1566 19.7503 27.1566H7.40635C3.31594 27.1566 0 23.8407 0 19.7503V7.40635ZM14.1748 9.86178C13.4043 9.74753 12.6174 9.87913 11.926 10.2379C11.2347 10.5966 10.674 11.1642 10.3238 11.86C9.97361 12.5557 9.85172 13.3442 9.97546 14.1132C10.0992 14.8822 10.4623 15.5927 11.0131 16.1434C11.5638 16.6942 12.2743 17.0573 13.0433 17.181C13.8123 17.3048 14.6008 17.1829 15.2965 16.8327C15.9923 16.4825 16.5599 15.9219 16.9186 15.2305C17.2774 14.5391 17.409 13.7522 17.2947 12.9817C17.1782 12.1958 16.812 11.4682 16.2501 10.9064C15.6883 10.3445 14.9607 9.97832 14.1748 9.86178ZM10.789 8.04653C11.9413 7.44862 13.2528 7.22928 14.5369 7.4197C15.8468 7.61394 17.0595 8.22431 17.9958 9.16067C18.9322 10.097 19.5426 11.3097 19.7368 12.6196C19.9272 13.9037 19.7079 15.2152 19.11 16.3675C18.5121 17.5198 17.566 18.4543 16.4065 19.0379C15.2469 19.6216 13.9328 19.8247 12.6511 19.6185C11.3694 19.4122 10.1853 18.8071 9.26737 17.8891C8.34941 16.9712 7.74428 15.7871 7.53803 14.5054C7.33179 13.2237 7.53495 11.9096 8.1186 10.75C8.70225 9.59046 9.63668 8.64443 10.789 8.04653ZM20.3674 5.55476C19.6857 5.55476 19.1331 6.10742 19.1331 6.78915C19.1331 7.47089 19.6857 8.02355 20.3674 8.02355H20.3794C21.0612 8.02355 21.6138 7.47089 21.6138 6.78915C21.6138 6.10742 21.0612 5.55476 20.3794 5.55476H20.3674Z" fill="#FBF6F6"/>
</svg>
