<svg width="31" height="26" viewBox="0 0 31 26" fill="none" xmlns="http://www.w3.org/2000/svg">
<path d="M28.8676 2.01241C27.6855 2.84622 26.3767 3.48394 24.9916 3.90103C24.2481 3.04623 23.2601 2.44037 22.1612 2.16539C21.0622 1.89041 19.9053 1.95958 18.8469 2.36354C17.7885 2.7675 16.8797 3.48677 16.2434 4.42407C15.6071 5.36136 15.2741 6.47145 15.2893 7.60421V8.8386C13.12 8.89485 10.9705 8.41374 9.03213 7.43812C7.0938 6.46249 5.42685 5.02265 4.17972 3.2468C4.17972 3.2468 -0.757847 14.3563 10.3517 19.2939C7.80949 21.0195 4.78106 21.8848 1.71094 21.7627C12.8205 27.9346 26.3988 21.7627 26.3988 7.56718C26.3976 7.22334 26.3646 6.88035 26.3 6.54263C27.5599 5.30021 28.4489 3.73157 28.8676 2.01241V2.01241Z" stroke="#FBF6F6" stroke-width="2.46878" stroke-linecap="round" stroke-linejoin="round"/>
</svg>
