<svg width="136" height="90" viewBox="0 0 136 90" fill="none" xmlns="http://www.w3.org/2000/svg">
<g clip-path="url(#clip0)">
<path d="M58.0651 88.8677L58.1118 61.0687L58.0651 88.8677Z" fill="#FBF6F6"/>
<path d="M58.0651 88.8677L58.1118 61.0687" stroke="#302D42" stroke-width="5.88745"/>
<path d="M125.579 89.3242C119.219 89.3242 115.447 86.1607 115.158 81.605H121.239C121.239 83.1237 122.105 85.1452 125.868 85.2708C128.476 85.2708 129.919 83.7525 129.919 82.6109C129.63 80.8406 127.311 80.715 125.002 80.3282C122.394 79.9607 120.374 79.4479 118.921 78.8191C116.9 77.8036 115.735 75.6464 115.735 73.3734C115.735 69.32 119.219 66.1565 125.291 66.1565C131.083 66.1565 134.846 69.0688 135.124 73.499H129.342C129.342 72.3667 129.053 70.4615 125.579 70.4615C123.26 70.4615 121.817 70.8387 121.528 72.483C121.528 74.7661 126.445 74.6401 130.207 75.5204C133.681 76.4104 136 78.5579 136 81.605C136 87.1768 131.372 89.3242 125.579 89.3242ZM14.7612 51.9421L34.7274 40.6726L45.4367 58.5298H18.5235" fill="#302D42"/>
<path d="M5.49453 77.7161C5.49453 81.2563 8.67927 84.1682 12.1428 84.1682C15.9151 84.1682 18.8015 81.2563 18.8015 77.7161C18.8015 74.3015 15.9151 71.2641 12.1428 71.2641C8.67927 71.2641 5.49453 74.3015 5.49453 77.7161ZM11.8545 89.3627C5.49407 89.3627 0 84.1682 0 77.7161C0 71.2641 5.49453 66.1955 11.8545 66.1955C14.4621 66.1955 16.781 66.8339 18.8015 68.2169V66.4466H24.5944V88.8499H18.802V87.4572C17.0702 88.7243 14.4626 89.3627 11.8549 89.3627H11.8545ZM89.1338 58.5243L61.3547 11.4351L81.3204 0.0400391L116.047 58.5243H89.1338ZM32.119 77.7161C32.119 81.2563 35.0158 84.1682 38.7777 84.1682C42.2412 84.1682 45.4364 81.2563 45.4364 77.7161C45.4364 74.3015 42.2412 71.2641 38.7777 71.2641C35.0154 71.2641 32.119 74.3015 32.119 77.7161ZM38.4889 89.3627C31.8302 89.3627 26.6249 84.1682 26.6249 77.7161C26.6249 71.2641 31.8302 66.1955 38.4889 66.1955C41.0866 66.1955 43.4059 66.8339 45.4364 68.2169V58.7274H51.2192V88.8499H45.4359V87.4572C43.4054 88.7243 41.0866 89.3627 38.4884 89.3627H38.4889ZM38.2037 31.8152L58.4582 20.6814L80.7437 58.523H59.6134H53.8301L38.2037 31.8152ZM132.248 64.2701C130.795 64.2701 129.352 63.003 129.352 61.4842C129.352 59.9655 130.795 58.6984 132.248 58.6984C133.979 58.6984 135.145 59.9659 135.145 61.4842C135.145 63.0025 133.979 64.2705 132.248 64.2705V64.2701ZM132.248 59.0857C130.795 59.0857 129.929 60.2171 129.929 61.4842C129.929 62.7514 130.795 63.893 132.248 63.893C133.691 63.893 134.557 62.7518 134.557 61.4842C134.557 60.2166 133.691 59.0857 132.248 59.0857Z" fill="#302D42"/>
<path d="M132.845 63.0126L132.268 61.7455H131.691V63.0126H131.253V59.9752H132.556C132.845 59.9752 133.422 60.3625 133.422 60.8652C133.422 61.3679 133.134 61.6199 132.845 61.7455L133.422 63.0126H132.845ZM132.268 60.3625H131.691V61.3683H132.268C132.845 61.3683 132.845 61.2428 132.845 60.8652C132.845 60.6043 132.845 60.3625 132.268 60.3625ZM94.0277 77.7161C94.0277 81.2563 96.9246 84.1681 100.686 84.1681C104.16 84.1681 107.335 81.2563 107.335 77.7161C107.335 74.3015 104.16 71.264 100.686 71.264C96.9241 71.264 94.0277 74.3015 94.0277 77.7161ZM100.388 89.3627C93.7394 89.3627 88.5336 84.1681 88.5336 77.7161C88.5336 71.264 93.7394 66.1955 100.388 66.1955C102.996 66.1955 105.315 66.8339 107.335 68.2169V66.4466H112.839V88.8499H107.336V87.4572C105.315 88.7243 102.996 89.3627 100.388 89.3627H100.388ZM67.4232 77.7161C67.4232 81.2563 70.608 84.1681 74.0815 84.1681C77.8442 84.1681 80.7402 81.2563 80.7402 77.7161C80.7402 74.3015 77.8438 71.264 74.0815 71.264C70.608 71.264 67.4232 74.3015 67.4232 77.7161ZM80.7402 58.7274H86.5231V88.8499H80.7402V87.4572C78.9985 88.7243 76.6796 89.3627 74.0815 89.3627C67.4232 89.3627 61.9287 84.1681 61.9287 77.7161C61.9287 71.264 67.4232 66.1955 74.0815 66.1955C76.6792 66.1955 78.9985 66.8339 80.7402 68.2169V58.7274Z" fill="#302D42"/>
</g>
<defs>
<clipPath id="clip0">
<rect width="136" height="89.403" fill="white"/>
</clipPath>
</defs>
</svg>
