<svg width="100" height="100" viewBox="0 0 100 100" fill="none" xmlns="http://www.w3.org/2000/svg">
<path d="M0 30.2757C0.0169035 22.2497 3.20651 14.5574 8.87044 8.88304C14.5344 3.20863 22.2111 0.0145132 30.2199 0H99.9872V15.3896H30.2382C26.3029 15.4064 22.5335 16.9799 19.75 19.7677C16.9665 22.5555 15.3941 26.332 15.3749 30.2757L15.2835 56.1113C14.9651 59.4213 13.5617 62.5324 11.2925 64.9592C9.0233 67.3856 6.01614 68.9903 2.74062 69.5235L0 69.9445V30.2757Z" fill="#E30613"/>
<path d="M0.00390625 100V84.6099H69.7709C73.7072 84.591 77.4764 83.0152 80.2599 80.2262C83.0427 77.4367 84.6151 73.6593 84.6343 69.7151V45.1977C84.6535 41.6408 85.934 38.2064 88.2466 35.5081C90.5593 32.8098 93.7537 31.0231 97.2593 30.4673L100 30.0553V69.7151C99.9829 77.742 96.7938 85.4352 91.1299 91.111C85.4664 96.7868 77.7897 99.9826 69.78 100H0.00390625Z" fill="#E30613"/>
<path d="M59.1069 69.9995V50.1057L50.008 60.991L40.9183 50.1057V69.9995H28.8687V30.8527H40.2788L50.008 43.4408L59.7373 30.8527H71.1474V69.9995H59.1069Z" fill="#E30613"/>
</svg>
